<?xml version="1.0" encoding="utf-8" standalone="no"?>
<!DOCTYPE svg PUBLIC "-//W3C//DTD SVG 1.1//EN" "http://www.w3.org/Graphics/SVG/1.1/DTD/svg11-flat-20030114.dtd">
<!-- Created by SVGDeveloper 1.0 -->
<svg width="6400" height="4800" version="1.1" xmlns="http://www.w3.org/2000/svg" xmlns:xlink="http://www.w3.org/1999/xlink" stroke="#000000">
	<defs>
		<linearGradient id="linearGradient">
			<stop stop-color="black" stop-opacity="1" offset="0" />
			<stop stop-color="white" stop-opacity="1" offset="1" />
		</linearGradient>
		<linearGradient id="linearGradient1">
			<stop stop-color="black" stop-opacity="1" offset="0" />
			<stop stop-color="white" stop-opacity="1" offset="1" />
		</linearGradient>
		<style type="text/css">
			<![CDATA[
			.motor
				{
					
				}
				.turbine
				{
				}	
			
			]]>
		</style>
	</defs>
	<g industry="thermal" group="汽轮机" device="single-turbine" caption="turbine">
		<polygon points="190.25 241.75,218.8553 234.4316,218.6088 270.1148,190.25 260.75" fill="#FFFFFF" stroke="#000000" stroke-opacity="1" stroke-width="0.25" transform="matrix(2.19,-0.004,0.002,1.31,-239.434,-77.254)" class="turbine" />
		<text x="195" y="251" xml:space="preserve" font-family="Microsoft YaHei UI" font-size="12" fill="#FFFFFF" stroke="#000000" stroke-opacity="1" baseline-shift="baseline" transform="matrix(1.05,0,0,0.981,-32.628,9.535)" class="turbine">
		
		turbine
			</text>
	</g>
	<g industry="thermal" group="汽轮机" device="low-turbine" caption="low-turbine">
		<g transform="matrix(1,0,0,1,10,-16)">
			<polygon points="34 240,83 258,83 294,34 309" fill="#FFFFFF" stroke="#000000" transform="matrix(1,0,0,1,1,1)" />
			<polygon points="133 241,83 258,83 294,133 308" fill="#FFFFFF" stroke="#000000" transform="matrix(1,0,0,1,2,1)" />
		</g>
		<text x="70" y="259" xml:space="preserve" font-family="Microsoft YaHei UI" font-size="12" fill="#000000" stroke="none" stroke-opacity="0" baseline-shift="baseline" transform="matrix(1,0,0,1,18,5)">
		  低压缸</text>
		<text x="70" y="259" xml:space="preserve" font-family="Microsoft YaHei UI" font-size="12" fill="#000000" stroke="none" stroke-opacity="0" baseline-shift="baseline" transform="matrix(1,0,0,1,-32,5)">
		  低压缸</text>
	</g>
	<text x="212.75" y="257.25" xml:space="preserve" font-family="Microsoft YaHei UI" font-size="12" fill="#000000" stroke="none" stroke-opacity="0" baseline-shift="baseline">
	</text>
	<text x="201.25" y="247" xml:space="preserve" font-family="Microsoft YaHei UI" font-size="12" fill="#000000" stroke="none" stroke-opacity="0" baseline-shift="baseline">
	</text>
	<ellipse cx="329.75" cy="264" rx="0" ry="0" fill="#FFFFFF" stroke="#000000" />
	<g industry="thermal" group="发电机" device="motor" caption="motor">
		<circle cx="277.75" cy="250.75" r="18.5" fill="#FFFFFF" stroke="#000000" transform="matrix(1.53,0,0,1.53,-106.09,-133.1)" class="motor" />
		<text x="307" y="247.5" xml:space="preserve" font-family="Microsoft YaHei UI" font-size="12" fill="#FFFFFF" stroke="#000000" baseline-shift="baseline" class="motor" transform="matrix(2,0,0,1.56,-333.5,-129.062)">
			G</text>
	</g>
	<polyline points="255 128" fill="#FFFFFF" stroke="#000000" stroke-width="0.25" />
	<g symbolType="Hello" transform="matrix(1.465,0,0,1.389,-112.252,-106.617)">
		<circle cx="150.9922" cy="186.2738" r="18.5" fill="#FFFFFF" stroke="#000000" transform="matrix(1.53,0,0,1.53,-106.09,-133.1)" />
		<text x="97" y="153" xml:space="preserve" font-family="Microsoft YaHei UI" font-size="12" fill="none" fill-opacity="0" stroke="#000000" baseline-shift="baseline">
		Hello</text>
	</g>
	<text x="130" y="150" xml:space="preserve" font-family="Microsoft YaHei UI" font-size="12" fill="none" fill-opacity="0" stroke="#000000" baseline-shift="baseline">
	</text>
	<text x="128" y="148" xml:space="preserve" font-family="Microsoft YaHei UI" font-size="12" fill="none" fill-opacity="0" stroke="#000000" baseline-shift="baseline">
	</text>
	<ellipse cx="373.5" cy="183.5" rx="0" ry="0" fill="#000000" stroke="none" stroke-opacity="0" />
	<ellipse cx="371.5" cy="168.5" rx="0" ry="0" fill="#000000" stroke="none" stroke-opacity="0" />
	<g industry="thermal" group="阀门" device="gate-valve-closed" caption="gate-valve-closed">
		<polygon points="180 110,220 130,220 110,180 130" fill="#000000" stroke="#FF0000" stroke-opacity="1" />
	</g>
	<g industry="thermal" group="阀门" device="gate-valve" caption="gate-valve">
		<polygon points="180 110,220 130,220 110,180 130" fill="none" stroke="#333333" stroke-opacity="1" transform="matrix(1,0,0,1,340,90)" stroke-width="0.25" />
	</g>
	<g industry="thermal" group="阀门" device="check-valve" caption="check-valve">
		<polygon points="180 110,220 130,220 110,180 130" fill="none" stroke="#333333" stroke-opacity="1" transform="matrix(1,0,0,1,340,130)" stroke-width="0.25" />
		<line x1="551" y1="255" x2="551" y2="244" stroke="#000000" stroke-width="0.25" />
	</g>
	<g>
		<g transform="matrix(0.25,0,0,0.25,460.656,87.922)" stroke-width="0.25">
			<circle cx="277.75" cy="250.75" r="18.5" fill="#FFFFFF" stroke="#000000" class="motor" transform="matrix(1,0,0,1,40,0)" />
			<text x="307" y="247.5" xml:space="preserve" font-family="Microsoft YaHei UI" font-size="12" fill="#FFFFFF" stroke="#000000" baseline-shift="baseline" class="motor" transform="matrix(2,0,0,1.56,-341.001,-129.062)">
				M</text>
		</g>
		<line x1="540.5" y1="158" x2="540.5" y2="170.75" stroke="#000000" stroke-width="0.25" transform="matrix(1,0,0,1,0,-3)" />
	</g>
	<g industry="thermal" group="阀门" device="motor-valve" caption="motorValve">
		<polygon points="180 110,220 130,220 110,180 130" fill="none" stroke="#333333" stroke-opacity="1" transform="matrix(1,0,0,1,90,0)" stroke-width="0.25" />
		<g transform="matrix(1,0,0,1,-250,-52)">
			<g transform="matrix(0.25,0,0,0.25,460.656,87.922)" stroke-width="0.25">
				<circle cx="277.75" cy="250.75" r="18.5" fill="#FFFFFF" stroke="#000000" transform="matrix(1.53,0,0,1.53,-107.59,-127.6)" class="motor" />
				<text x="307" y="247.5" xml:space="preserve" font-family="Microsoft YaHei UI" font-size="12" fill="#FFFFFF" stroke="#000000" baseline-shift="baseline" class="motor" transform="matrix(2,0,0,1.56,-350,-122.562)">
					M</text>
			</g>
			<line x1="540.5" y1="158" x2="540.5" y2="170.75" stroke="#000000" stroke-width="0.25" transform="matrix(1,0,0,1,-0.5,1.125)" />
		</g>
	</g>
	<g transform="matrix(1,0,0,1,38.5,0)">
		<polygon points="500 91.5,492.875 101.5,506 101.375" fill="#FFFFFF" stroke="#000000" transform="matrix(1,0,0,1,1.5,0)" />
		<line x1="500" y1="101.5" x2="500" y2="111.25" stroke="#000000" transform="matrix(1,0,0,1,1,0)" />
	</g>
	<g industry="thermal" group="Valve" device="safe-valve" caption="safeValve" transform="matrix(1.369,0,0,1.251,-138.593,-26.195)">
		<path d="M369.6775 82.53493L374 84L367.1265 89.16145L375.7857 91.30121L370 94L370 100" fill="#FFFFFF" stroke="#000000" />
		<g transform="matrix(1,0,0,1,-130,8.25)">
			<polygon points="500 91.5,493.1636 101.5,506.7788 101" fill="#FFFFFF" stroke="#000000" />
			<line x1="500" y1="101.5" x2="500" y2="111.25" stroke="#000000" transform="matrix(0.9999999,0,0,0.9999999,0.5102181,-1.965691E-07)" />
		</g>
		<g transform="matrix(-0.008,-1,1,-0.008,283.092,600.512)">
			<polygon points="500 91.5,494.8936 102.0054,505.9919 102.0203" fill="#FFFFFF" stroke="#000000" />
			<line x1="500" y1="101.5" x2="500" y2="111.25" stroke="#000000" transform="matrix(1,2.458266E-10,5.789882E-10,0.9999999,0.6022828,0.004813389)" />
		</g>
	</g>
	<polyline points="440 72" fill="#000000" stroke="#000000" />
	<g industry="thermal" group="加热器" device="seg1-heater" caption="seg1-heater">
		<rect x="59" y="299" width="38" height="29" fill="none" stroke="#000000" transform="matrix(1.06,0,0,1.073,28.69496,16.58284)" />
		<g transform="matrix(1,0,0,1,30.875,-34.625)">
			<line x1="71" y1="403" x2="71" y2="381" stroke="#000000" transform="matrix(1.18,0,0,1.07,-14.025,-27.46606)" />
			<line x1="71" y1="381.5" x2="79.57627" y2="400.2018" stroke="#000000" transform="matrix(1.18,0,0,1.07,-13.9,-27.46608)" />
			<line x1="79.99999" y1="399.7346" x2="89.5339" y2="381.2766" stroke="#000000" transform="matrix(1.18,0,0,1.07,-14.4,-27.466)" />
			<line x1="89.5" y1="380.75" x2="89.5" y2="402.75" stroke="#000000" transform="matrix(1.18,0,0,1.07,-14.4,-27.466)" />
		</g>
	</g>
	<line x1="154" y1="361.75" x2="154" y2="361.75" stroke="#000000" />
	<g industry="thermal" group="加热器" device="seg3-heater" caption="seg3-heater">
		<rect x="145" y="338" width="93" height="30" fill="none" fill-opacity="0" stroke="#000000" transform="matrix(1,0,0,1,0,-0.125)" />
		<line x1="171" y1="340" x2="171" y2="366.4425" stroke="#000000" transform="matrix(0.9999999,0,0,1.13,0.7499998,-46.20507)" />
		<line x1="210" y1="340" x2="210.0002" y2="367.1884" stroke="#000000" transform="matrix(0.9999999,0,0,1.09,-2.375194,-32.61039)" />
		<line x1="145.1586" y1="341.6962" x2="151.2215" y2="352.5974" stroke="#000000" transform="matrix(0.9299999,0,0,0.7899999,18.739,83.323)" />
		<line x1="154.5" y1="361.5" x2="154.5" y2="344.875" stroke="#000000" transform="matrix(1,0,0,1,4.875,0)" />
		<line x1="154.625" y1="345" x2="159.125" y2="353.875" stroke="#000000" transform="matrix(1,0,0,1,4.875,0)" />
		<line x1="154.625" y1="345" x2="159.125" y2="353.875" stroke="#000000" transform="matrix(1,0,0,1,30,8.25)" />
		<line x1="154.625" y1="345" x2="159.125" y2="353.875" stroke="#000000" transform="matrix(1,0,0,1,34.75,0.25)" />
		<line x1="154.5" y1="361.5" x2="154.5" y2="344.875" stroke="#000000" transform="matrix(1,0,0,1,34.75,0.375)" />
		<line x1="154.5" y1="361.5" x2="154.5" y2="344.875" stroke="#000000" transform="matrix(1,0,0,1,68.5,0)" />
		<line x1="154.625" y1="345" x2="159.125" y2="353.875" stroke="#000000" transform="matrix(1,0,0,1,64.125,8.375)" />
		<line x1="154.625" y1="345" x2="159.125" y2="353.875" stroke="#000000" transform="matrix(1,0,0,1,68.5,0.25)" />
		<line x1="153.875" y1="353.375" x2="144.875" y2="353.375" stroke="#000000" transform="matrix(1,0,0,1,0.25,0)" />
		<line x1="166.5" y1="353.375" x2="144.875" y2="353.375" stroke="#000000" transform="matrix(1,0,0,1,18.75,0.25)" />
		<line x1="153.875" y1="353.375" x2="144.875" y2="353.375" stroke="#000000" transform="matrix(1,0,0,1,48.5,0.375)" />
		<line x1="199.25" y1="334.125" x2="180.125" y2="334.125" stroke="#000000" transform="matrix(1,0,0,1,20.25,19.625)" />
		<line x1="155.625" y1="353.375" x2="144.875" y2="353.375" stroke="#000000" transform="matrix(1,0,0,1,82.375,0.625)" />
	</g>
	<g industry="nature" group="云朵" device="grey-cloud" caption="grey-cloud" transform="matrix(0.517,0,0,0.402,150.856,204.662)" fill="#990000">
		<path d="M342.235,274.75c16.542-11.613-9.099-22.903-52.929-15.806 c5.788-12.904-57.895-20.322-77.747-2.582c-4.134-10.322-81.873-8.064-72.774,5.806c-26.468-7.096-71.126,6.775-43.834,20.323 c-27.292,5.161-21.503,22.581,13.229,22.903c-5.785,7.741,14.891,18.063,59.549,11.29c0,5.482,35.563,20.967,65.337,0.967 c6.617,9.677,62.853,17.418,71.127-0.967c15.711,3.87,64.507,1.289,48.792-17.419 C367.046,297.331,391.858,277.008,342.235,274.75z" transform="matrix(0.1770213,0,0,0.4159021,415.1923,249.6881)" fill="#999999" stroke="#333333" />
	</g>
	<text x="173" y="301" xml:space="preserve" font-family="Microsoft YaHei UI" font-size="12" fill="#000000" stroke="none" stroke-opacity="0" baseline-shift="baseline">
	</text>
	<text x="96" y="253" xml:space="preserve" font-family="Microsoft YaHei UI" font-size="12" fill="#000000" stroke="none" stroke-opacity="0" baseline-shift="baseline">
	</text>
<g industry="thermal" group="凝汽器" device="simple-condensor" caption="simple-condensor">
<circle cx="132.5" cy="437.5" r="20.5" fill="#FFFFFF" stroke="#000000" transform="matrix(1,0,0,1,0,1.5)" />
<line x1="160" y1="430.5" x2="122.5" y2="430.5" stroke="#000000" />
<line x1="122.5" y1="430.5" x2="146" y2="440.75" stroke="#000000" />
<line x1="145.75" y1="440.25" x2="122.5" y2="448" stroke="#000000" transform="matrix(1,0,0,1,0,0)" />
<line x1="122.5" y1="445" x2="160.5" y2="445" stroke="#000000" transform="matrix(1,0,0,1,-0.5,3.5)" />
</g>
</svg>
